<?xml version="1.0" encoding="utf-8"?>
<!-- Generator: Adobe Illustrator 18.0.0, SVG Export Plug-In . SVG Version: 6.00 Build 0)  -->
<!DOCTYPE svg PUBLIC "-//W3C//DTD SVG 1.1//EN" "http://www.w3.org/Graphics/SVG/1.1/DTD/svg11.dtd">
<svg version="1.1" id="Layer_1" xmlns="http://www.w3.org/2000/svg" xmlns:xlink="http://www.w3.org/1999/xlink" x="0px" y="0px"
	 viewBox="0 0 64 64" enable-background="new 0 0 64 64" xml:space="preserve">
<g>
	<g>
		<g>
			<path d="M58,36c0-14.3-11.7-26-26-26S6,21.7,6,36c0,6.1,2.1,11.7,5.6,16.1l-7.8,7.8l4.2,4.2l7.8-7.8c4.4,3.5,10,5.6,16.1,5.6
				s11.7-2.1,16.1-5.6l7.8,7.8l4.2-4.2l-7.8-7.8C55.9,47.7,58,42.1,58,36z M38.2,46.4L29,39.5V22h6v14.5l6.8,5.1L38.2,46.4z"/>
		</g>
	</g>
	<g>
		<g>
			<path d="M22.8,5.1l-1.4-1.4C19,1.3,15.9,0,12.5,0S6,1.3,3.7,3.7c-4.9,4.9-4.9,12.8,0,17.7l1.4,1.4L22.8,5.1z"/>
		</g>
	</g>
	<g>
		<g>
			<path d="M60.3,3.7C58,1.3,54.8,0,51.5,0S45,1.3,42.6,3.7l-1.4,1.4l17.7,17.7l1.4-1.4C65.2,16.5,65.2,8.6,60.3,3.7z"/>
		</g>
	</g>
</g>
</svg>
